<svg xmlns="http://www.w3.org/2000/svg" width="400" height="400" viewBox="0 0 400 NaN" fill-rule="evenodd" xmlns:v="https://vecta.io/nano"><path d="M184.757 20.377c-1.234.168-2.424.417-2.646.554s-3.4.534-7.063.882-7.256.882-7.984 1.186-2.929.76-4.893 1.014-3.975.719-4.469 1.033-2.384.84-4.2 1.17-3.787.87-4.38 1.201-2.106.792-3.362 1.024-2.696.692-3.198 1.021-1.958.845-3.237 1.149-3.038.92-3.91 1.37-1.84.819-2.152.819-1.13.346-1.816.77-2.097.983-3.135 1.244-2.095.725-2.349 1.03-.658.556-.898.556c-.437 0-6.735 2.9-7.865 3.623-.33.21-1.05.598-1.6.862s-1.72.943-2.6 1.511l-5 2.906c-.99.494-1.862 1.038-1.937 1.209s-.825.662-1.667 1.091-2.37 1.37-3.397 2.089L97.616 52l-5.069 3.582-2.576 2.018c-8.457 6.395-20.08 17.553-27.708 26.6l-3.437 4.078c-1.334 1.583-2.426 3.046-2.426 3.251s-.294.617-.654.916-1.125 1.245-1.7 2.103L52 97.584l-1.94 2.946c-.516.809-1.077 1.47-1.245 1.47s-.615.809-.993 1.798-.902 1.934-1.166 2.1-.816 1.067-1.228 2.002-.888 1.7-1.058 1.7-.511.616-.759 1.368-.697 1.572-.997 1.82-.922 1.209-1.382 2.132-1.007 1.95-1.215 2.28c-.734 1.165-3.617 7.434-3.617 7.865 0 .24-.25.645-.556.898s-.769 1.311-1.03 2.349-.821 2.449-1.244 3.135-.77 1.503-.77 1.816-.368 1.281-.819 2.152-1.067 2.631-1.37 3.91-.812 2.723-1.131 3.209-.707 1.69-.864 2.675-.618 2.511-1.026 3.391-1.018 3.086-1.357 4.902-.874 3.706-1.187 4.2-.778 2.505-1.033 4.469-.712 4.171-1.018 4.903-.755 3.626-.998 6.429-.746 6.447-1.119 8.097c-.889 3.934-1.019 33.548-.159 36.2.286.88.777 4.315 1.093 7.634s.833 6.655 1.15 7.413.777 2.903 1.022 4.766.779 4.197 1.188 5.187.961 3.15 1.229 4.8.742 3.289 1.053 3.642.763 1.794 1.005 3.2.68 2.835.975 3.173.796 1.688 1.115 3 .956 3.098 1.415 3.97.836 1.807.836 2.078.45 1.341 1 2.375 1 2.167 1 2.516.442 1.537.983 2.64 1.257 2.636 1.592 3.406.788 1.67 1.007 2 .683 1.23 1.03 2a37.6 37.6 0 0 0 2.807 5.072c.953 1.437 2.3 3.866 3.318 5.984.438.911.994 1.778 1.236 1.927s.704.905 1.028 1.68.996 1.907 1.494 2.517a30.31 30.31 0 0 1 1.505 2.02c.33.501 1.264 1.831 2.076 2.956l2.4 3.369c1.156 1.658 5.77 7.559 6.889 8.809L64 317.968l4 4.431c3.891 4.32 5.945 6.377 9.792 9.801l4.43 4c2.259 2.11 5.115 4.48 7.378 6.122 1.21.879 2.65 1.974 3.2 2.434 1.385 1.16 3.571 2.682 5 3.481.66.369 1.344.917 1.52 1.217s.547.546.824.546.871.341 1.318.757c2.625 2.446 4.802 2.551 5.868.283.403-.858.974-1.801 1.269-2.096s.745-1.168 1-1.94.605-1.404.779-1.404.711-.855 1.195-1.9c1.372-2.962 2.546-5.054 3.527-6.281.495-.62.9-1.313.9-1.541s.277-.721.616-1.096.952-1.558 1.363-2.631l1.256-3.211c.553-1.365-.852-5.39-2.402-6.881-1.255-1.208-3.981-3.259-4.332-3.259-.19 0-.943-.441-1.673-.979s-1.832-1.09-2.45-1.226-1.339-.507-1.603-.825-1.222-.949-2.128-1.401c-3.32-1.655-4.9-2.587-5.712-3.369-.457-.44-1.783-1.34-2.945-2s-2.539-1.635-3.06-2.167-1.266-1.162-1.658-1.4l-2.051-1.233c-.737-.44-2.618-1.83-4.18-3.089l-3.791-3c-.522-.391-1.782-1.486-2.8-2.433s-2.329-1.979-2.914-2.292-3.113-2.598-5.616-5.078l-8.687-8.508c-7.999-7.735-10.473-12.965-8.198-17.327.308-.59.561-1.533.563-2.095s.452-1.633 1.002-2.378 1-1.528 1-1.74.424-.941.942-1.622 1.081-1.688 1.25-2.238.638-1.316 1.043-1.702.923-1.4 1.153-2.253.677-1.767.994-2.03.791-1.14 1.051-1.947.901-2.204 1.421-3.103.946-1.9.946-2.222.432-1.173.96-1.889 1.071-1.895 1.208-2.622.594-1.636 1.017-2.019.879-1.195 1.013-1.805.684-1.707 1.223-2.436.979-1.628.979-1.996.331-1.097.736-1.622.932-1.53 1.172-2.234c1.29-3.785 4.581-6.29 7.142-5.437 1.171.391 5.114 4.672 8.75 9.502 1.1 1.461 2.36 3.05 2.8 3.53s2.062 2.319 3.606 4.085l6.501 7.279 2.764 3c.527.584 5.477 5.139 9.116 8.389l4.8 4.378c1.327 1.236 2.818 2.457 3.313 2.714s1.304.84 1.8 1.296c1.495 1.375 6.671 5.144 7.064 5.144.203 0 .788.36 1.302.799 1.736 1.486 3.727 2.803 5.234 3.464.825.362 1.5.796 1.5.965s.855.621 1.9 1.007 2.189.945 2.543 1.243c1.133.956 3.356.762 4.754-.414.696-.585 1.417-1.064 1.603-1.064s.554-.675.818-1.5.802-1.86 1.196-2.3.912-1.544 1.153-2.453.696-1.867 1.01-2.128.686-.996.826-1.633.673-1.776 1.185-2.53 1.051-1.921 1.198-2.594.606-1.653 1.018-2.176 1.049-1.703 1.416-2.619.815-1.667.996-1.667.446-.405.588-.9.809-2.07 1.482-3.5l2.428-5.2 1.734-3.6a41.73 41.73 0 0 0 .975-2 30.65 30.65 0 0 1 1.005-2c.307-.55.839-1.63 1.182-2.4s.976-2.055 1.407-2.854c1.044-1.939 1.065-5.475.041-6.792a17.22 17.22 0 0 1-1.3-1.993c-.307-.571-1.998-2.271-3.758-3.776-2.724-2.331-4.176-3.61-8.256-7.274-.299-.269-.724-.664-.944-.878s-1.541-1.433-2.935-2.711c-5.71-5.232-15.335-15.048-16.264-16.587-.22-.366-1.121-1.436-2.001-2.378s-1.96-2.286-2.4-2.988c-1.89-3.014-3.033-4.569-3.362-4.569-.193 0-.657-.675-1.03-1.5-.863-1.905-2.428-4.798-2.934-5.421-.667-.823-3.274-5.922-3.278-6.412-.002-.257-.464-1.457-1.028-2.666s-1.265-3.37-1.56-4.8-.815-3.321-1.155-4.201c-1.039-2.689-.928-24.05.142-27.464.437-1.395.807-2.986.823-3.536s.359-2.17.763-3.6l1.532-5.481a38.85 38.85 0 0 1 3.107-7.819l1.125-2.2a98.49 98.49 0 0 1 1.19-2.3c.355-.66.992-1.939 1.416-2.842s1.059-1.753 1.41-1.888.639-.496.639-.802.54-1.237 1.2-2.068 1.2-1.65 1.2-1.82c0-1.372 13.783-14.445 17.5-16.599.715-.414 1.3-.901 1.3-1.081s.765-.687 1.7-1.124c1.833-.858 3.295-1.661 5.5-3.021.77-.474 1.913-.982 2.54-1.127s1.617-.597 2.2-1.004 2.32-1.045 3.86-1.416 3.11-.839 3.489-1.039c2.314-1.217 11.282-2.748 21.311-3.637 6.978-.618 18.36.022 25.8 1.451 6.036 1.16 10.314 2.143 11.059 2.541.419.225 1.927.618 3.351.875s3.13.79 3.79 1.185 1.873.838 2.694.984 2.262.615 3.2 1.04c1.964.891 3.75.995 4.925.286 2.828-1.705 3.382-2.195 3.599-3.181.132-.597.677-1.73 1.211-2.517s.971-1.668.971-1.958.431-1.162.959-1.939 1.08-1.964 1.227-2.637.588-1.638.978-2.143.92-1.541 1.18-2.302.812-1.75 1.228-2.2.954-1.561 1.195-2.47.698-1.869 1.015-2.132.786-1.14 1.042-1.947.735-1.897 1.065-2.422c.54-.858 2.911-7.672 2.911-8.364 0-.785-3.122-2.628-5.318-3.14-1.349-.315-2.729-.82-3.067-1.122s-1.515-.672-2.615-.823-2.721-.612-3.601-1.024-2.983-1.013-4.672-1.336-3.579-.848-4.199-1.166-2.735-.79-4.699-1.049-4.198-.733-4.965-1.053-4.327-.851-7.912-1.179-7.022-.812-7.636-1.074c-1.299-.555-28.868-.842-32.559-.339M316.8 62.925c0 .069.585.654 1.3 1.3l1.3 1.175-1.175-1.3c-1.095-1.212-1.425-1.484-1.425-1.175m14 13.6c0 .069.585.654 1.3 1.3L333.4 79l-1.175-1.3c-1.095-1.212-1.425-1.484-1.425-1.175M281 86.8c.859.88 1.652 1.6 1.762 1.6s-.503-.72-1.362-1.6-1.652-1.6-1.762-1.6.503.72 1.362 1.6m-77.344 30.859c-.739.213-1.273.458-1.186.544s1.051-.087 2.144-.387 1.626-.544 1.186-.544-1.405.174-2.144.387m15.744-.168c.66.094 1.371.337 1.58.54s.558.369.776.369.048-.264-.38-.587-1.316-.566-1.976-.54l-1.2.047 1.2.171m-26.6 6.709c-.972.99-1.677 1.8-1.567 1.8s.995-.81 1.967-1.8 1.677-1.8 1.567-1.8-.995.81-1.967 1.8m60.3 10.882c.495.096 1.305.096 1.8 0s.09-.173-.9-.173-1.395.078-.9.173m-66.207 3.318c0 .77.082 1.085.183.7s.1-1.015 0-1.4-.183-.07-.183.7m79.595 3.013c.598.63 1.159 1.064 1.247.966s-.402-.614-1.088-1.145l-1.247-.965 1.088 1.144m-79.195 4.987c0 .77.082 1.085.183.7s.1-1.015 0-1.4-.183-.07-.183.7m2.307 5.725c0 .069.585.654 1.3 1.3l1.3 1.175-1.175-1.3c-1.095-1.212-1.425-1.484-1.425-1.175m19.755 1.687c-.365.557-.591 1.086-.502 1.175s.465-.367.836-1.013c.825-1.438.58-1.557-.334-.162m165.073 2.788c0 .22.258.85.572 1.4s.572.82.572.6-.258-.85-.572-1.4-.572-.82-.572-.6m-86.228 3.8c1.083 1.1 2.06 2 2.17 2s-.687-.9-1.77-2-2.06-2-2.17-2 .687.9 1.77 2m90.293 17.2c0 .77.082 1.085.183.7s.1-1.015 0-1.4-.183-.07-.183.7m-149.192 2.2c.004.88.086 1.193.182.695s.092-1.217-.008-1.6-.179.025-.174.905M309.8 184l-1.6.286 1.476.057c.812.031 1.588-.123 1.724-.343s.192-.374.124-.343-.844.185-1.724.343m-79 .925c0 .069.585.654 1.3 1.3l1.3 1.175-1.175-1.3c-1.095-1.212-1.425-1.484-1.425-1.175m149.314 6.875c.003 1.1.081 1.503.173.895s.09-1.509-.005-2-.171.005-.168 1.105M244 196.125c0 .069.585.654 1.3 1.3l1.3 1.175-1.175-1.3c-1.095-1.212-1.425-1.484-1.425-1.175m4.4 4c0 .069.585.654 1.3 1.3l1.3 1.175-1.175-1.3c-1.095-1.212-1.425-1.484-1.425-1.175m131.714 8.075c.003 1.1.081 1.503.173.895s.09-1.509-.005-2-.171.005-.168 1.105M264.8 216.925c0 .069.585.654 1.3 1.3l1.3 1.175-1.175-1.3c-1.095-1.212-1.425-1.484-1.425-1.175m113.701 5.675c.004.88.086 1.193.182.695s.092-1.217-.008-1.6-.179.025-.174.905m-97.741 16.8c.674 1.305 1.228 2.028 1.225 1.6-.002-.22-.371-.85-.821-1.4-.543-.664-.679-.731-.404-.2m-85.055 3.3c-.639.825-1.413 2.13-1.719 2.9s-.923 1.964-1.371 2.654c-1.942 2.991-5.397 9.629-5.408 10.392-.004.245-.341.875-.749 1.4s-.955 1.607-1.215 2.406-.826 1.771-1.258 2.162-.785.949-.785 1.242c0 .477-1.92 4.616-2.851 6.144-.201.33-.636 1.23-.967 2s-.778 1.67-.994 2c-2.801 4.278-4.228 10.689-2.787 12.514 2.696 3.415 15.597 5.278 19.599 2.83.77-.471 2.329-1.051 3.465-1.289 3.61-.755 11.176-6.444 11.981-9.008.146-.466.69-1.243 1.21-1.728.574-.536.944-1.337.944-2.046 0-.641.405-1.68.9-2.308 1.487-1.889 1.596-12.542.159-15.487-.558-1.143-1.131-2.708-1.274-3.478-.259-1.391-.637-2.077-3.595-6.514-1.572-2.359-5.413-6.286-6.148-6.286-.224 0-1.07-.45-1.88-1-2.208-1.498-3.828-1.344-5.257.5m179.095-.3c-.279.674-.414 1.319-.3 1.433s.409-.371.656-1.077c.582-1.67.303-1.948-.356-.356m-87.458 21.4c-.001 1.98.066 2.84.15 1.912s.085-2.548.003-3.6-.152-.292-.153 1.688m-1.249 13.8c0 .77.082 1.085.183.7s.1-1.015 0-1.4-.183-.07-.183.7m54.482 34.9l-1.175 1.3 1.3-1.175c.715-.646 1.3-1.231 1.3-1.3 0-.309-.33-.037-1.425 1.175m-6.8 8l-1.175 1.3 1.3-1.175c.715-.646 1.3-1.231 1.3-1.3 0-.309-.33-.037-1.425 1.175m-4 4.4l-1.175 1.3 1.3-1.175c.715-.646 1.3-1.231 1.3-1.3 0-.309-.33-.037-1.425 1.175m-5.2 5.2l-1.175 1.3 1.3-1.175c.715-.646 1.3-1.231 1.3-1.3 0-.309-.33-.037-1.425 1.175m-4.4 4L319 335.4l1.3-1.175c.715-.646 1.3-1.231 1.3-1.3 0-.309-.33-.037-1.425 1.175m-8 6.8L311 342.2l1.3-1.175c.715-.646 1.3-1.231 1.3-1.3 0-.309-.33-.037-1.425 1.175M220 345.648c-.77.413-1.105.751-.744.751s1.08-.353 1.6-.786c1.144-.953.975-.946-.856.035m84.522.981l-1.122 1.029 1.3-.904c.715-.497 1.3-.961 1.3-1.029 0-.316-.442-.045-1.478.904m-124.822.047c.385.1 1.015.1 1.4 0s.07-.183-.7-.183-1.085.082-.7.183m35.6 0c.385.1 1.015.1 1.4 0s.07-.183-.7-.183-1.085.082-.7.183m-28.3 1.1c.66.323 1.92.574 2.8.556 1.566-.031 1.558-.038-.4-.34-1.1-.17-2.36-.42-2.8-.556s-.26.017.4.34m19.1.5c.385.1 1.015.1 1.4 0s.07-.183-.7-.183-1.085.082-.7.183m-9.8.42a53.45 53.45 0 0 0 5 0c1.375-.078.25-.142-2.5-.142s-3.875.064-2.5.142M136 368.364c.55.45 1.18.819 1.4.821.428.003-.295-.551-1.6-1.225-.531-.275-.464-.139.2.404M157.2 375c.55.314 1.18.572 1.4.572s-.05-.258-.6-.572-1.18-.572-1.4-.572.05.258.6.572m84.8.031l-1 .602 1-.265c1.452-.384 2.403-.944 1.6-.942-.33.001-1.05.273-1.6.605m-65.1 3.645c.385.1 1.015.1 1.4 0s.07-.183-.7-.183-1.085.082-.7.183m45.005.007c.497.096 1.217.092 1.6-.008s-.025-.179-.905-.174-1.193.086-.695.182m-31 1.604c.609.092 1.509.09 2-.005s-.005-.171-1.105-.168-1.503.081-.895.173m16.4 0c.609.092 1.509.09 2-.005s-.005-.171-1.105-.168-1.503.081-.895.173" fill="#059307"/><path d="M296.453 50.41c-.689.63-1.253 1.335-1.253 1.568s-.968 1.382-2.15 2.555-2.379 2.568-2.659 3.1-.737 1.103-1.018 1.269-.626.827-.767 1.469-.695 1.639-1.231 2.218-.975 1.389-.975 1.801-.427 1.257-.948 1.879-1.074 1.708-1.228 2.412-.601 1.695-.993 2.2-.944 1.639-1.223 2.519-.738 1.87-1.019 2.2c-1.196 1.409-2.298 6.457-1.764 8.077.506 1.531 4.268 5.495 6.382 6.723l4.434 2.879c.394.373 1.266.963 1.938 1.31s1.221.807 1.221 1.021.242.39.538.39c.517 0 7.64 4.889 8.462 5.808.22.246 1.615 1.234 3.1 2.196s2.7 1.889 2.7 2.062.566.606 1.257.963 2.176 1.532 3.3 2.61 2.174 1.96 2.334 1.961 1.284.945 2.499 2.1a201.81 201.81 0 0 0 4.473 4.1c4.06 3.586 7.024 6.37 8.494 7.978a99.42 99.42 0 0 0 2.264 2.4c3.642 3.644 4.178 8.796 1.46 14.022l-2.498 4.992c-.458.986-.967 1.886-1.131 2s-.541.838-.839 1.608-.854 1.76-1.235 2.2-.811 1.366-.957 2.059-.613 1.571-1.036 1.954-.882 1.297-1.019 2.03-.659 1.743-1.157 2.245-1.03 1.475-1.179 2.163-.712 1.848-1.251 2.577-.979 1.707-.979 2.172-.45 1.455-1 2.2-1 1.546-1 1.779c0 .377-1.766 3.882-4.274 8.483-1.07 1.963-3.311 3.738-4.721 3.738-1.854 0-5.866-3.548-7.122-6.3-.226-.495-.55-.9-.72-.9s-.422-.356-.56-.791-.825-1.495-1.527-2.354-2.176-2.76-3.276-4.223c-3.117-4.144-12.613-14.115-18.034-18.936-2.264-2.013-2.902-2.515-7.252-5.696-1.053-.769-2.149-1.714-2.437-2.1s-.713-.7-.947-.7-1.027-.495-1.762-1.1c-9.175-7.542-16.759-7.974-18.401-1.048-.15.631-.592 1.508-.984 1.948s-.909 1.544-1.15 2.453-.706 1.876-1.033 2.147-.793 1.232-1.037 2.136-.874 2.156-1.402 2.784-.961 1.453-.961 1.833-.45 1.302-1 2.047-1 1.546-1 1.779-1.257 2.853-2.794 5.822l-3.629 7.199c-.459.99-1.066 2.07-1.349 2.4-.605.706-1.828 5.462-1.828 7.111 0 2.796 1.143 4.73 4.705 7.96l4.737 4.329c.708.66 2.058 1.74 3 2.4 5.005 3.506 21.891 20.199 25.893 25.597 1.123 1.516 3.148 4.128 4.498 5.803 2.901 3.599 3.567 4.537 3.567 5.024 0 .301.346.733.768.959s.982 1.087 1.244 1.914.701 1.684.976 1.906.859 1.122 1.299 2 1.094 2.137 1.454 2.797.655 1.491.657 1.846.364 1.106.806 1.669.984 1.969 1.204 3.126.674 2.407 1.01 2.779c.375.414.768 2.124 1.018 4.427.224 2.064.576 4.383.783 5.153.497 1.848.467 6.544-.056 8.8-.229.99-.56 4-.736 6.688-.233 3.559-.509 5.178-1.017 5.953-.384.586-.857 2.331-1.051 3.878s-.618 3.217-.941 3.71-.785 1.768-1.026 2.834-.774 2.657-1.184 3.537l-1.706 3.8c-1.246 2.854-2.109 4.576-3.429 6.837-1.148 1.965-1.584 2.644-4.495 6.993-1.182 1.765-4.191 5.101-8.053 8.929-4.889 4.845-6.684 6.39-11.488 9.885-1.629 1.186-3.176 2.156-3.438 2.156s-.806.366-1.211.813c-.739.817-8.619 4.8-11.568 5.847-.869.309-1.862.816-2.207 1.128s-1.523.767-2.619 1.012-2.415.719-2.929 1.054-2.122.795-3.574 1.021-3.101.745-3.665 1.153c-.695.502-2.058.822-4.226.99-1.76.136-4.64.629-6.4 1.095-4.361 1.155-20.58 1.242-23.2.124-.88-.375-3.67-.868-6.2-1.094-3.051-.272-5.014-.65-5.83-1.122-.676-.391-2.296-.843-3.6-1.003s-3.18-.631-4.17-1.045-2.697-.948-3.794-1.186-2.275-.688-2.62-1c-3.449-3.121-13.986-.811-13.986 3.066 0 .377-.427 1.194-.948 1.816a6.9 6.9 0 0 0-1.243 2.531c-.163.77-.614 1.76-1.003 2.2s-.924 1.476-1.189 2.303-.827 1.688-1.249 1.914-.768.726-.768 1.111c0 .682-2.178 4.46-3.281 5.689-.304.34-.79 1.189-1.079 1.887s-.777 1.477-1.083 1.732c-1.377 1.142.5 2.684 4.843 3.979 1.32.393 3.21.995 4.2 1.338 3.297 1.141 9.779 2.996 11.386 3.257.873.142 2.088.518 2.701.835s2.959.851 5.214 1.187 4.888.876 5.852 1.202 3.934.759 6.6.962 6.647.679 8.847 1.057c5.699.978 25.548.982 30.868.006 2.017-.37 5.887-.843 8.6-1.052s5.832-.655 6.932-.992 3.732-.875 5.848-1.196 4.456-.851 5.2-1.179 2.792-.897 4.552-1.264 3.547-.849 3.971-1.073 1.864-.656 3.2-.961 2.969-.808 3.629-1.118 2.28-.919 3.6-1.353c5.98-1.97 7.529-2.588 12.806-5.112 1.103-.527 2.294-.959 2.646-.959s1.069-.331 1.594-.736 1.547-.938 2.273-1.186 1.784-.816 2.354-1.264 1.246-.814 1.503-.814 1.089-.46 1.846-1.022 2.098-1.378 2.978-1.814c3.45-1.709 4.714-2.439 5.516-3.186.459-.428 1.046-.778 1.304-.778s1.149-.54 1.98-1.2 1.695-1.2 1.921-1.2.697-.271 1.045-.603c.594-.564 3.307-2.555 6.369-4.673.735-.508 2.556-1.914 4.047-3.124l4.19-3.4c.814-.66 1.973-1.65 2.577-2.2l4.442-4c4.193-3.762 5.847-5.416 9.609-9.609l4-4.442c.55-.604 1.54-1.763 2.2-2.577l3.4-4.185c2.308-2.839 5.341-6.954 6.624-8.987.416-.66.986-1.344 1.266-1.52s.51-.556.51-.845.54-1.204 1.2-2.035 1.2-1.733 1.2-2.006.29-.737.645-1.031c.603-.501 1.418-1.915 3.321-5.763.435-.88 1.251-2.22 1.812-2.978s1.022-1.588 1.022-1.846.366-.934.814-1.503 1.017-1.629 1.264-2.354.781-1.748 1.186-2.273.736-1.242.736-1.594.432-1.543.959-2.646c2.524-5.277 3.142-6.826 5.112-12.806.434-1.32 1.044-2.94 1.353-3.6s.813-2.293 1.118-3.629.737-2.776.961-3.2.707-2.211 1.073-3.971.936-3.808 1.264-4.552.859-3.084 1.179-5.2.859-4.748 1.196-5.848.784-4.219.992-6.932.682-6.583 1.052-8.6c.976-5.32.972-25.169-.006-30.868-.378-2.2-.853-6.181-1.057-8.847s-.636-5.636-.962-6.6-.867-3.598-1.202-5.852-.87-4.601-1.187-5.214-.693-1.828-.835-2.701c-.256-1.575-2.072-7.94-3.248-11.386-.338-.99-.884-2.767-1.213-3.948s-.948-2.799-1.374-3.594-.775-1.737-.775-2.093-.45-1.492-1-2.527-1-2.093-1-2.353-.433-1.376-.962-2.479l-2.652-5.606c-.929-1.98-1.915-3.87-2.191-4.2s-.633-1.05-.795-1.6-.588-1.333-.947-1.74c-.652-.739-1.617-2.461-3.284-5.86-.485-.99-1.033-1.898-1.218-2.019s-1.194-1.588-2.243-3.262-2.988-4.607-4.308-6.518l-3-4.372c-.33-.493-.87-1.19-1.2-1.549a24.38 24.38 0 0 1-1.004-1.166c-7.192-9.138-17.233-19.46-26.41-27.15l-5.347-4.364a124.28 124.28 0 0 1-2.586-2.005c-.689-.553-2.333-1.712-3.653-2.577s-2.76-1.862-3.2-2.218c-1.897-1.534-2.801-1.619-4.147-.39m-89.141 66.811c-4.023.794-8.105 2.108-8.744 2.815-.381.42-.933.764-1.228.764-1.012 0-7.219 6.537-7.523 7.923-.157.713-.697 1.787-1.201 2.387-1.143 1.361-1.884 7.948-1.381 12.29.178 1.54.333 3.198.344 3.684s.366 1.207.789 1.6.898 1.256 1.059 1.916.895 1.876 1.632 2.701 1.342 1.636 1.343 1.8c.003.582 4.704 5.333 6.636 6.706 3.358 2.388 5.725 1.541 7.851-2.807l1.402-2.8a47.94 47.94 0 0 0 .886-1.8c.775-1.676 1.644-3.368 2.054-4 .214-.33.767-1.41 1.228-2.4s1.057-2.07 1.323-2.4.798-1.455 1.183-2.5.843-1.9 1.016-1.9.546-.826.829-1.836.747-1.926 1.032-2.035.805-1.067 1.158-2.129.884-2.023 1.181-2.137.662-.935.812-1.823.588-2.027.972-2.528c1.125-1.469 2.147-5.773 1.846-7.78-.492-3.279-8.996-5.192-16.499-3.711" fill="#050505"/></svg>