<svg xmlns="http://www.w3.org/2000/svg" width="400" height="400" viewBox="0 0 400 NaN" fill-rule="evenodd" xmlns:v="https://vecta.io/nano"><path d="M3.6 1.567c0 1.487-.086 1.595-1.7 2.133l-1.7.567-.1 196.016L-.001 396.3l1.262.252c1.732.347 2.339.943 2.339 2.297V400h63.173 63.173l-.034-1.212c-.074-2.609-3.584-4.421-11.956-6.17-8.04-1.68-10.45-2.576-16.156-6.003-1.54-.925-3.837-2.153-5.104-2.728-1.403-.637-3.526-2.188-5.429-3.967l-4.949-4.579a24.26 24.26 0 0 1-3.134-3.6c-.72-1.068-2.516-3.201-3.991-4.741s-3.228-3.88-3.897-5.2-2.152-3.66-3.295-5.2c-3.344-4.505-3.572-5.094-7.047-18.2-5.645-21.289-5.154-8.15-5.154-137.8l1.814-124.458c.656-3.584 4.079-17.269 5.84-23.342.868-2.995 2.702-6.62 4.396-8.687.772-.943 2.221-3.199 3.22-5.014 1.109-2.015 2.936-4.467 4.695-6.299 1.585-1.65 3.267-3.63 3.738-4.4 1.667-2.722 10.224-10.309 13.381-11.864 1.604-.79 4.364-2.319 6.133-3.398 3.954-2.409 7.093-3.52 14.577-5.154C127.034 5.922 130 4.336 130 1.353V0H66.8 3.6v1.567m267.114-.365c-.417 2.841 3.212 4.778 12.754 6.809 6.473 1.378 10.906 2.911 13.885 4.8 1.056.67 3.527 2.025 5.491 3.011 3.828 1.923 12.641 9.582 14.465 12.573.472.773 2.24 2.856 3.931 4.63 1.722 1.807 3.603 4.27 4.279 5.6.664 1.306 2.099 3.481 3.189 4.833 2.344 2.906 4.035 6.772 5.486 12.542a301.51 301.51 0 0 0 2.585 9.4c4.282 14.575 4.13 11.464 4.313 88.4l-.291 67.925c-.737 2.508-2.904 4.539-5.945 5.573l-2.656.902-80 .2-81.4.852c-1.872.873-3.701 2.873-5.072 5.548L164.6 237l-.109 33.899c-.134 41.783-.11 42.04 4.437 47.006 5.48 5.985 6.491 6.171 32.694 6.019l21.421-.124 3.008-1.487c8.846-4.373 10.343-8.63 10.359-29.465.018-22.429.532-24.155 7.82-26.274 3.34-.971 88.298-.665 91.215.328 5.505 1.875 5.526 1.95 5.691 20.898.224 25.749-.545 33.635-4.78 49-4.277 15.516-4.752 16.768-7.747 20.4-.998 1.21-2.475 3.46-3.282 5-.904 1.726-2.415 3.721-3.938 5.2-1.36 1.32-3.058 3.272-3.775 4.338s-2.217 2.775-3.332 3.8l-4.9 4.53c-1.766 1.641-4.088 3.284-6.027 4.268a168.77 168.77 0 0 0-6.334 3.425c-3.788 2.176-7.297 3.374-14.821 5.059-8.272 1.853-11.4 3.514-11.4 6.055V400h61.967l62.168-.5c.161-.4.208-.4.233 0 .076 1.203 1.632.507 1.632-.73 0-1.055.226-1.324 1.596-1.9l1.596-.67.004-195.93L400 4.341l-1.596-.671c-1.457-.612-1.596-.801-1.6-2.17-.004-1.622-1.351-2.245-1.728-.8-.174.667-.185.667-.23 0s-3.281-.7-62.001-.7h-61.954l-.177 1.202M180.6 74.409c-9.679.775-12.165 2.458-14.7 9.951l-1.3 3.84v31.6c0 37.147-.17 35.87 5.162 38.724l1.638.876h29 29l2.157-1.195c4.992-2.764 4.897-1.976 4.75-39.472l-.122-30.933-1.324-3.688c-2.683-7.471-4.888-8.86-15.459-9.735-5.075-.42-33.453-.397-38.802.032" fill="#fc5757"/><path d="M130 1.353c0 2.983-2.966 4.569-12.406 6.631-7.484 1.634-10.623 2.745-14.577 5.154-1.769 1.079-4.529 2.608-6.133 3.398-3.157 1.555-11.714 9.142-13.381 11.864-.471.77-2.153 2.75-3.738 4.4-1.759 1.832-3.586 4.284-4.695 6.299-.999 1.815-2.448 4.071-3.22 5.014-1.694 2.067-3.528 5.692-4.396 8.687-1.761 6.073-5.184 19.758-5.84 23.342C59.757 86.291 59.8 83.37 59.8 200.6c0 129.65-.491 116.511 5.154 137.8 3.475 13.106 3.703 13.695 7.047 18.2 1.143 1.54 2.626 3.88 3.295 5.2s2.423 3.66 3.897 5.2 3.271 3.673 3.991 4.741a24.26 24.26 0 0 0 3.134 3.6l4.949 4.579c1.903 1.779 4.026 3.33 5.429 3.967 1.267.575 3.564 1.803 5.104 2.728 5.706 3.427 8.116 4.323 16.156 6.003 7.365 1.539 12.213 3.772 12.003 5.529-.239 2.006-6.042 1.853 70.441 1.853h70.4v-1.125c0-2.541 3.128-4.202 11.4-6.055 7.524-1.685 11.033-2.883 14.821-5.059a168.77 168.77 0 0 1 6.334-3.425c1.939-.984 4.261-2.627 6.027-4.268l4.9-4.53c1.115-1.025 2.614-2.735 3.332-3.8s2.415-3.018 3.775-4.338c1.523-1.479 3.034-3.474 3.938-5.2.807-1.54 2.284-3.79 3.282-5 2.995-3.632 3.47-4.884 7.747-20.4 4.235-15.365 5.004-23.251 4.78-49-.165-18.948-.186-19.023-5.691-20.898-2.917-.993-87.875-1.299-91.215-.328-7.288 2.119-7.802 3.845-7.82 26.274-.016 20.835-1.513 25.092-10.359 29.465l-3.008 1.487-21.421.124c-26.203.152-27.214-.034-32.694-6.019-4.547-4.966-4.571-5.223-4.437-47.006L164.6 237l1.128-2.2c1.371-2.675 3.2-4.675 5.072-5.548 1.275-.594 8.54-.67 81.4-.852l80-.2 2.656-.902c3.041-1.034 5.208-3.065 5.945-5.573.326-1.109.405-19.658.291-67.925-.183-76.936-.031-73.825-4.313-88.4a301.51 301.51 0 0 1-2.585-9.4c-1.451-5.77-3.142-9.636-5.486-12.542-1.09-1.352-2.525-3.527-3.189-4.833-.676-1.33-2.557-3.793-4.279-5.6-1.691-1.774-3.459-3.857-3.931-4.63-1.824-2.991-10.637-10.65-14.465-12.573-1.964-.986-4.435-2.341-5.491-3.011-2.979-1.889-7.412-3.422-13.885-4.8-9.53-2.029-13.039-3.901-12.735-6.795L270.86 0h-70.43H130v1.353m89.402 73.024c10.571.875 12.776 2.264 15.459 9.735l1.324 3.688.122 30.933c.147 37.496.242 36.708-4.75 39.472L229.4 159.4h-29-29l-1.638-.876c-5.332-2.854-5.162-1.577-5.162-38.724V88.2l1.3-3.84c3.268-9.657 5.022-10.193 33.7-10.293 8.47-.03 17.381.11 19.802.31" fill="#fcfbfb"/></svg>