<svg xmlns="http://www.w3.org/2000/svg" width="400" height="539.673" viewBox="0 0 400 NaN" fill-rule="evenodd" xmlns:v="https://vecta.io/nano"><path d="M188.808 84.607c-43.83 4.126-80.043 27.235-101.534 64.793-5.721 9.999-11.785 25.446-13.267 33.8-.176.99-.708 3.6-1.183 5.8-2.835 13.127-2.849 34.908-.03 47.8l1.199 5.8c.203 1.1.752 3.26 1.221 4.8l1.159 4.021c2.657 10.566 11.513 27.713 20.472 39.637C125.749 329.531 178 349.253 224.4 339.204l5-1.056c2.084-.403 6.634-1.743 11.6-3.415 44.976-15.143 78.35-54.921 85.352-101.733 1.664-11.12 1.74-12.211 1.519-21.8-1.057-45.913-23.654-85.421-62.14-108.645-12.578-7.589-30.161-14.247-42.618-16.136l-5.067-.817c-8.728-1.492-19.912-1.873-29.238-.995m20.792 51.164c0 8.569-.656 7.996 9.6 8.386 21.441.817 35.122 10.264 38.384 26.506 2.807 13.977-1.613 25.954-12.384 33.558-4.267 3.012-4.062 4.445 1 6.986 13.235 6.645 18.95 16.219 18.475 30.953-.754 23.399-15.702 35.258-45.608 36.182-10.329.32-9.467-.439-9.467 8.334v6.524h-9.966-9.965l-.135-6.586c-.184-9.038 2.746-7.992-22.748-8.124l-21.186-.11v-7.39-7.39h5.756c5.071 0 5.868-.091 6.7-.765l.944-.764.118-49.936c.122-51.199.087-52.508-1.422-53.148-.383-.162-3.261-.384-6.396-.492l-5.7-.196v-7.149V144h20.413c26.014 0 23.587.952 23.587-9.25v-5.55h10 10v6.571m-31.491 24.512c-.655.999-.709 2.599-.709 20.835v19.753l.979.793c1.518 1.229 40.679.918 45.021-.357 11.816-3.471 15.8-8.72 15.8-20.82 0-12.194-5.784-18.776-18.2-20.712-2.715-.423-8.345-.562-22.891-.568l-19.291-.007-.709 1.083m.812 56.972c-1.634.833-1.721 2.001-1.721 23.018 0 22.605.007 22.667 2.511 23.137 3.932.737 44.019-.075 48.089-.975 14.139-3.126 20.356-13.284 17.415-28.455-1.694-8.74-5.961-13.084-15.615-15.895l-3.4-.99-23.2-.144c-16.6-.103-23.45-.016-24.079.304M294.2 384.852c-12.503 8.268-46.35 20.006-64.4 22.333l-9.2 1.275c-9.435 1.348-33.596 1.345-43.2-.006l-9.2-1.258c-1.54-.198-4.51-.736-6.6-1.197l-6-1.249c-11.654-2.178-30.69-9.14-45.567-16.664-8.27-4.183-9.852-4.533-10.614-2.353-.304.867-.244 1.397.254 2.266 2.238 3.898 97.683 130.425 98.551 130.643 2.059.517 2.765-.102 7.818-6.851l8.558-11.389 18-23.986c.44-.626 3.146-4.261 6.013-8.078l6-7.998 5.419-7.2c47.695-63.216 50.365-66.983 48.688-68.66-.724-.724-3.167-.523-4.52.372" fill="#046cbc"/><path d="M182.8 28.647c-9.856.915-21.095 2.836-22.261 3.804-.811.673-.652 3.176.462 7.271l2.825 10.478 1.722 6.4 2.47 9.2 1.665 6.125c.587 1.966 1.794 2.276 5.917 1.519 14.267-2.618 35.164-2.556 48 .143 4.381.921 4.81.516 6.557-6.187l4.854-18.2c4.881-18.089 5.07-16.715-2.494-18.19-14.563-2.84-34.414-3.783-49.717-2.363m-46 10.122c-21.12 7.682-39.913 18.479-56.597 32.519-6.659 5.604-7.191 4.418 9.39 20.945 16.679 16.623 14.849 15.635 20.486 11.066 11.75-9.526 25-17.221 38.521-22.373 6.189-2.357 6.554-3.004 4.858-8.585-.559-1.837-1.183-4.061-1.387-4.941-1.005-4.334-7.105-26.897-7.749-28.662-.364-.999-1.351-1.547-2.722-1.512-.33.008-2.49.703-4.8 1.543m118.322-1.149c-.702.409-1.64 3.276-3.922 11.98l-2.413 9c-.606 2.2-1.191 4.45-1.299 5s-.635 2.53-1.172 4.4c-2.886 10.059-2.806 10.509 2.176 12.324 13.926 5.071 30.334 14.576 41.398 23.98 4.088 3.475 3.284 3.983 19.61-12.4l13.3-13.347v-1.742c0-1.891-1.136-3.229-5.8-6.835l-5.4-4.19c-10.043-7.811-26.593-17.574-37.718-22.25-12.689-5.333-17.282-6.783-18.76-5.92M61.133 89.7c-.341.275-2.319 2.57-4.394 5.1-13.887 16.929-22.871 32.631-31.29 54.687-1.872 4.902-2.106 6.262-1.292 7.504.772 1.177 1.763 1.479 24.243 7.393l9 2.406c7.328 1.991 7.263 2.021 9.811-4.59 5.24-13.596 13.849-28.319 22.889-39.144 4.048-4.847 4.788-3.573-11.602-19.958C63.587 88.192 63.289 87.962 61.133 89.7m259.572 12.783c-16.6 16.573-16.046 15.775-13.323 19.186 11.502 14.408 18.704 26.726 24.632 42.131 2.105 5.471-.563 5.727 31.586-3.027 13.035-3.549 12.556-3.013 9.654-10.816-7.652-20.582-17.357-37.749-30.501-53.957-7.65-9.434-5.461-10.077-22.048 6.483m-301.84 71.852c-1.003 1.003-2.096 6.781-3.267 17.265l-.811 6.477c-.508 3.513-.505 26.073.004 29.923l.798 6.4c.665 5.619 1.189 9.217 1.863 12.8 1.215 6.453.334 6.375 17.748 1.566l22.888-6.116c2.173-.518 2.211-.973.925-11.05-1.635-12.81-1.637-23.924-.006-37 1.448-11.607 1.774-10.74-4.65-12.371l-7.557-2.002-13.4-3.611-6.8-1.799c-5.149-1.396-6.723-1.494-7.735-.482m355.935-.325c-.55.178-3.16.899-5.8 1.601l-9 2.408-16.715 4.441c-5.273 1.39-5.29 1.433-3.99 10.34 2.033 13.927 2.042 25.354.033 40l-.81 6c-.38 2.974.001 3.272 6.34 4.968l9.742 2.638 8.8 2.366 9.122 2.485c4.775 1.352 6.742 1.318 7.517-.13.734-1.372 2.644-12.903 3.135-18.927.251-3.08.631-6.95.844-8.6.5-3.869.501-17.718.002-21.6-.213-1.65-.584-5.43-.827-8.4-.874-10.709-2.527-18.816-3.999-19.603-.86-.461-2.955-.455-4.394.013m-316 84.645c-1.87.557-4.39 1.242-5.6 1.52a122.8 122.8 0 0 0-5 1.307 1575.09 1575.09 0 0 1-22.4 6.041c-2.805.715-2.633 3.166.836 11.957 7.948 20.138 17.646 36.605 30.873 52.42l3.764 4.5h1.79 1.79l13.773-13.76c15.97-15.955 15.446-15.099 11.902-19.44-10.843-13.28-19.666-28.689-24.58-42.925-.95-2.752-2.317-3.061-7.148-1.62m276.09-.741c-1.119.177-1.723 1.087-3.11 4.686-3.959 10.267-11.955 25.458-16.349 31.059-.457.583-1.641 2.201-2.631 3.595s-2.758 3.673-3.928 5.062c-4.345 5.157-4.777 4.381 11.517 20.686 16.841 16.853 14.435 16.149 22.652 6.635 9.403-10.887 21.497-31.448 27.549-46.837l3.075-7.8c2.148-5.405 1.543-6.832-3.465-8.164l-7.6-2.045-9.8-2.625-9.2-2.448c-5.932-1.587-7.729-1.959-8.71-1.804M89.763 333.3c-13.783 13.781-14.55 14.704-14.01 16.857.556 2.214 18.422 15.817 28.447 21.657l3.6 2.096c3.182 1.849 17.684 8.834 21.2 10.211l6.267 2.444c5.501 2.133 8.411 2.3 9.111.524.42-1.067 1.42-4.758 7.825-28.889l1.6-6c1.125-4.194.634-5.193-3.203-6.515-6.537-2.252-17.215-7.371-24.235-11.619-6.242-3.777-10.888-7.072-17.434-12.366-4.455-3.602-3.212-4.355-19.168 11.6m199.76-11.595c-8.993 7.502-16.91 12.619-28.323 18.307-5.476 2.729-10.382 4.831-13.538 5.799-3.24.995-3.914 2.599-2.832 6.743L248.754 367l2.666 10c2.868 11.063 3.02 11.4 5.163 11.4 1.249 0 9.274-2.631 12.617-4.136.77-.347 2.75-1.201 4.4-1.898 13.811-5.835 28.485-14.766 42.6-25.928 9.438-7.463 10.025-5.618-7.302-22.94-16.208-16.203-14.983-15.458-19.375-11.793m-118.606 30.68c-1.014.433-.787-.283-5.351 16.815l-4.582 16.838c-1.887 6.594-1.511 7.645 3.052 8.524 20.667 3.981 42.804 4.346 64.364 1.061 12.2-1.859 11.66-.329 6.644-18.823l-1.864-7c-4.824-18.995-4.318-18.176-10.672-17.259-15.186 2.193-28.776 2.432-41.108.723-8.948-1.24-9.524-1.288-10.483-.879" fill="#f48423"/></svg>