<?xml version="1.0" encoding="utf-8"?>
<!-- Generator: Adobe Illustrator 16.0.3, SVG Export Plug-In . SVG Version: 6.00 Build 0)  -->
<!DOCTYPE svg PUBLIC "-//W3C//DTD SVG 1.1//EN" "http://www.w3.org/Graphics/SVG/1.1/DTD/svg11.dtd">
<svg version="1.1" xmlns="http://www.w3.org/2000/svg" xmlns:xlink="http://www.w3.org/1999/xlink" x="0px" y="0px"
	 width="660.839px" height="453px" viewBox="0 0 660.839 453" enable-background="new 0 0 660.839 453" xml:space="preserve">
<g id="Capa_1" display="none">
	<g display="inline">
		<g>
			<path fill-rule="evenodd" clip-rule="evenodd" fill="#FDFDFD" d="M10.18,17.236c0-35.179,0.056-70.357-0.087-105.535
				c-0.014-3.504,0.429-4.572,4.378-4.57c210.446,0.134,420.892,0.134,631.338,0c3.952-0.002,4.39,1.07,4.377,4.571
				c-0.142,35.594-0.087,71.189-0.087,106.784c-2.731-6.906-8.249-8.008-14.969-8.005c-203.358,0.098-406.718,0.094-610.077,0.011
				C18.851,10.488,13.61,11.607,10.18,17.236z"/>
			<path fill-rule="evenodd" clip-rule="evenodd" fill="#FDFDFD" d="M650.1,437.184c0,35.204-0.072,70.408,0.106,105.611
				c0.02,3.73-0.754,4.478-4.481,4.477c-210.39-0.114-420.78-0.114-631.17,0c-3.726,0.001-4.5-0.746-4.481-4.477
				c0.179-35.203,0.107-70.407,0.107-105.611c3.43,5.632,8.674,6.747,14.876,6.745c203.389-0.083,406.778-0.083,610.167,0
				C641.426,443.931,646.669,442.815,650.1,437.184z"/>
			<path fill-rule="evenodd" clip-rule="evenodd" fill="#010100" d="M650.1,437.184c-3.431,5.632-8.674,6.747-14.877,6.745
				c-203.389-0.083-406.777-0.083-610.167,0c-6.203,0.002-11.446-1.113-14.876-6.745c0-139.982,0-279.965,0-419.947
				c3.43-5.629,8.671-6.749,14.874-6.745c203.359,0.083,406.719,0.087,610.077-0.011c6.72-0.002,12.237,1.1,14.969,8.005
				C650.1,158.052,650.1,297.617,650.1,437.184z M588.103,295.225c2.745-7.8,4.885-9.339,13.267-9.383
				c7.08-0.037,14.18-0.327,21.234,0.096c5.2,0.314,6.689-1.358,6.655-6.591c-0.223-34.775-0.228-69.553,0.003-104.329
				c0.036-5.311-1.618-6.538-6.707-6.534c-194.916,0.121-389.833,0.129-584.75-0.029c-5.757-0.005-6.815,1.847-6.781,7.107
				c0.22,33.942,0.112,67.887,0.113,101.831c0,8.436,0.003,8.439,8.327,8.439c170.969,0.001,341.937,0.03,512.906-0.095
				c7.462-0.006,13.195,1.422,15.328,9.423c-2.079,9.453-4.284,11.039-15.507,11.039c-171.005,0.003-342.011,0.002-513.016,0.003
				c-8.186,0-8.19,0.004-8.191,7.907c-0.002,33.743-0.002,67.485-0.001,101.229c0.001,8.031,0.005,8.035,7.971,8.036
				c194.125,0,388.25,0,582.376,0c1.041,0,2.1-0.122,3.121,0.021c3.889,0.541,4.925-1.19,4.913-4.937
				c-0.115-35.826-0.122-71.651,0.005-107.477c0.014-3.983-1.498-4.942-5.146-4.844c-7.7,0.211-15.412,0.121-23.118,0.048
				C592.342,306.102,589.918,304.004,588.103,295.225z M330.114,148.189c97.455,0,194.91-0.042,292.364,0.115
				c5.264,0.008,7.1-0.957,7.051-6.72c-0.298-34.772-0.225-69.549-0.058-104.326c0.022-4.602-0.804-6.339-6.005-6.336
				c-195.535,0.15-391.069,0.149-586.604,0.005c-5.104-0.003-6.088,1.582-6.064,6.281c0.183,34.567,0.266,69.136-0.056,103.7
				c-0.057,6.174,1.734,7.43,7.632,7.418C135.621,148.133,232.868,148.189,330.114,148.189z"/>
			<path fill-rule="evenodd" clip-rule="evenodd" fill="#EB1F34" d="M588.103,295.225c1.815,8.779,4.239,10.877,13.002,10.961
				c7.706,0.073,15.418,0.163,23.118-0.048c3.648-0.099,5.16,0.86,5.146,4.844c-0.127,35.825-0.12,71.65-0.005,107.477
				c0.012,3.746-1.024,5.478-4.913,4.937c-1.021-0.143-2.08-0.021-3.121-0.021c-194.126,0-388.251,0-582.376,0
				c-7.966-0.001-7.97-0.005-7.971-8.036c-0.001-33.743-0.001-67.485,0.001-101.229c0-7.903,0.005-7.907,8.191-7.907
				c171.005-0.001,342.011,0,513.016-0.003c11.223,0,13.428-1.586,15.508-11.04C574.5,295.181,581.301,295.203,588.103,295.225z"/>
			<path fill-rule="evenodd" clip-rule="evenodd" fill="#FDDE00" d="M330.114,148.189c-97.247,0-194.493-0.056-291.739,0.138
				c-5.897,0.011-7.689-1.245-7.632-7.418c0.322-34.564,0.239-69.133,0.056-103.7c-0.024-4.699,0.959-6.285,6.064-6.281
				c195.534,0.145,391.068,0.146,586.604-0.005c5.201-0.003,6.027,1.734,6.005,6.336c-0.167,34.776-0.24,69.553,0.058,104.326
				c0.049,5.763-1.787,6.729-7.051,6.72C525.024,148.147,427.569,148.189,330.114,148.189z"/>
			<path fill-rule="evenodd" clip-rule="evenodd" fill="#103B9A" d="M588.103,295.225c-6.802-0.021-13.603-0.044-20.404-0.065
				c-2.134-8-7.867-9.428-15.329-9.422c-170.969,0.125-341.937,0.096-512.906,0.095c-8.324,0-8.327-0.004-8.327-8.439
				c-0.001-33.943,0.107-67.888-0.113-101.831c-0.034-5.26,1.024-7.112,6.781-7.107c194.917,0.159,389.834,0.15,584.75,0.029
				c5.089-0.004,6.743,1.223,6.707,6.534c-0.23,34.776-0.226,69.553-0.003,104.329c0.034,5.232-1.455,6.905-6.655,6.591
				c-7.055-0.423-14.154-0.133-21.234-0.096C592.987,285.886,590.848,287.425,588.103,295.225z M258.699,251.333
				c0.16-5.451-4.673-10.376-10.236-10.433c-5.385-0.055-10.014,4.247-10.351,9.618c-0.351,5.594,4.161,10.468,9.853,10.646
				C253.723,261.344,258.536,256.936,258.699,251.333z M411.652,240.909c-5.569,0.142-10.344,5.157-10.076,10.587
				c0.275,5.611,5.13,9.908,10.901,9.652c5.426-0.241,9.764-4.787,9.705-10.171C422.122,245.371,417.305,240.767,411.652,240.909z
				 M274.434,227.376c0.094-5.699-4.445-10.291-10.17-10.287c-5.646,0.004-10.377,4.726-10.285,10.265
				c0.089,5.337,4.551,9.802,9.953,9.96C269.689,237.484,274.339,233.084,274.434,227.376z M406.301,227.177
				c-0.022-5.547-4.822-10.179-10.463-10.096c-5.682,0.083-10.18,4.797-9.992,10.473c0.179,5.438,4.598,9.734,10.059,9.783
				C401.547,237.386,406.322,232.72,406.301,227.177z M287.734,221.096c5.764,0.137,10.388-4.291,10.447-10.001
				c0.056-5.45-4.192-9.962-9.62-10.217c-5.721-0.268-10.569,4.071-10.836,9.7C277.459,216.164,282.024,220.962,287.734,221.096z
				 M372.206,200.858c-5.711,0.028-10.24,4.675-10.108,10.37c0.125,5.446,4.505,9.797,9.957,9.894
				c5.703,0.1,10.452-4.448,10.5-10.055C382.603,205.477,377.892,200.83,372.206,200.858z M315.885,213.52
				c5.556-0.069,10.37-5.025,10.178-10.475c-0.198-5.6-5.031-9.992-10.762-9.778c-5.41,0.2-9.846,4.721-9.867,10.054
				C305.413,208.789,310.333,213.59,315.885,213.52z M354.847,203.227c-0.085-5.587-4.871-10.101-10.582-9.978
				c-5.672,0.122-10.303,4.979-10.021,10.513c0.269,5.307,4.926,9.745,10.246,9.765C350.018,213.546,354.93,208.662,354.847,203.227
				z"/>
			<path fill-rule="evenodd" clip-rule="evenodd" fill="#F8F9FB" d="M258.699,251.333c-0.163,5.603-4.977,10.011-10.734,9.831
				c-5.691-0.178-10.203-5.052-9.853-10.646c0.337-5.371,4.965-9.673,10.351-9.618C254.026,240.957,258.859,245.882,258.699,251.333
				z"/>
			<path fill-rule="evenodd" clip-rule="evenodd" fill="#F8F9FB" d="M411.652,240.909c5.652-0.143,10.47,4.462,10.53,10.068
				c0.059,5.384-4.279,9.93-9.705,10.171c-5.771,0.256-10.626-4.041-10.901-9.652C401.309,246.066,406.083,241.051,411.652,240.909z
				"/>
			<path fill-rule="evenodd" clip-rule="evenodd" fill="#F8F9FB" d="M274.434,227.376c-0.095,5.708-4.744,10.108-10.502,9.938
				c-5.402-0.158-9.863-4.623-9.953-9.96c-0.093-5.539,4.639-10.261,10.285-10.265C269.988,217.085,274.527,221.677,274.434,227.376
				z"/>
			<path fill-rule="evenodd" clip-rule="evenodd" fill="#F8F9FB" d="M406.301,227.177c0.021,5.543-4.754,10.209-10.396,10.16
				c-5.461-0.049-9.88-4.346-10.059-9.783c-0.188-5.676,4.311-10.39,9.992-10.473C401.479,216.998,406.278,221.629,406.301,227.177z
				"/>
			<path fill-rule="evenodd" clip-rule="evenodd" fill="#F8F9FB" d="M287.734,221.096c-5.71-0.134-10.275-4.932-10.01-10.519
				c0.268-5.629,5.115-9.968,10.836-9.7c5.428,0.255,9.676,4.768,9.62,10.217C298.123,216.806,293.498,221.233,287.734,221.096z"/>
			<path fill-rule="evenodd" clip-rule="evenodd" fill="#F8F9FB" d="M372.206,200.858c5.686-0.028,10.396,4.619,10.349,10.209
				c-0.048,5.607-4.797,10.155-10.5,10.055c-5.452-0.096-9.832-4.448-9.957-9.894C361.966,205.533,366.495,200.886,372.206,200.858z
				"/>
			<path fill-rule="evenodd" clip-rule="evenodd" fill="#F8F9FB" d="M315.885,213.52c-5.552,0.07-10.472-4.731-10.451-10.199
				c0.021-5.333,4.457-9.854,9.867-10.054c5.731-0.214,10.563,4.178,10.762,9.778C326.254,208.495,321.44,213.451,315.885,213.52z"
				/>
			<path fill-rule="evenodd" clip-rule="evenodd" fill="#F8F9FB" d="M354.847,203.227c0.083,5.435-4.829,10.319-10.357,10.299
				c-5.32-0.02-9.978-4.458-10.246-9.765c-0.281-5.534,4.35-10.391,10.021-10.513C349.976,193.126,354.762,197.64,354.847,203.227z"
				/>
		</g>
	</g>
	<path fill="none" d="M204.93,354c-22.136-17.258-55.98-22.126-82.189-30.032c-15.647-4.721-31.351-9.646-47.055-14.219
		c-10.777-3.139-30.815-5.464-39.119-13.747c-7.76-7.74-4.61-22.609-4.637-33.285c-0.04-15.945,2.038-31.687,2-47.642
		c-0.085-35.952-4.804-71.25-6-106.852c-1.068-31.802-9-61.985-9-94.223"/>
</g>
<g id="Capa_2">
	<rect x="8.93" y="423.334" width="639" height="16.667"/>
	<rect x="15.93" y="296" fill="#D30D0D" width="637" height="121.334"/>
	<g>
		<path fill="#D30D0D" d="M26.105,404c-4.677,0-8.504,3.827-8.504,8.504v12.993c0,4.677,3.827,8.504,8.504,8.504H634.42
			c4.677,0,8.504-3.827,8.504-8.504v-12.993c0-4.677-3.827-8.504-8.504-8.504H26.105z"/>
	</g>
	<rect x="15.93" y="158" fill="#0C0CE8" width="632" height="138"/>
	<rect x="17.93" y="14" stroke="#000000" stroke-miterlimit="10" width="625" height="19.5"/>
	<g>
		<path fill="#F2EB00" d="M634.426,89.362c4.677-0.002,8.504-3.83,8.504-8.507V27.504c0-4.677-3.827-8.504-8.504-8.504H26.434
			c-4.677,0-8.504,3.827-8.504,8.504v54.57c0,4.677,3.827,8.475,8.504,8.44L634.426,89.362z"/>
	</g>
	<g>
		<path fill="#F2EB00" d="M15.93,78.249V158h627V77.022C433.647,75.123,225.252,77.181,15.93,78.249z"/>
	</g>
	<g>
		<g>
			<path d="M650.708,434.07c-23.8,0-47.601,0-71.4,0c-56.139,0-112.277,0-168.416,0c-65.582,0-131.164,0-196.747,0
				c-52.132,0-104.264,0-156.396,0c-16.654,0-33.307,0-49.961,0c3.357,2.596,6.714,5.192,10.071,7.788c0-32.585,0-65.17,0-97.755
				c0-64.119,0-128.238,0-192.356c0-45.199,0-90.397,0-135.596c0-2.431,0-4.861,0-7.292c-2.596,3.357-5.192,6.714-7.789,10.071
				c23.8,0,47.601,0,71.401,0c56.138,0,112.277,0,168.415,0c65.583,0,131.165,0,196.747,0c52.132,0,104.265,0,156.396,0
				c16.653,0,33.307,0,49.961,0c-3.357-2.596-6.714-5.192-10.071-7.789c0,32.585,0,65.17,0,97.755c0,64.119,0,128.237,0,192.356
				c0,45.199,0,90.397,0,135.596c0,2.431,0,4.862,0,7.293c0,4.914,5.677,8.347,10.071,7.788c5.322-0.677,7.788-5.169,7.788-10.071
				c0-32.585,0-65.17,0-97.755c0-64.119,0-128.238,0-192.356c0-45.199,0-90.397,0-135.596c0-2.431,0-4.861,0-7.292
				c0-5.333-5.686-7.789-10.071-7.789c-23.8,0-47.601,0-71.4,0c-56.139,0-112.277,0-168.416,0c-65.582,0-131.164,0-196.747,0
				c-52.132,0-104.264,0-156.396,0c-16.654,0-33.307,0-49.961,0C2.456,1.07,0,6.756,0,11.141c0,32.585,0,65.17,0,97.755
				c0,64.119,0,128.237,0,192.356c0,45.199,0,90.397,0,135.596c0,2.431,0,4.862,0,7.293c0,5.332,5.686,7.788,10.071,7.788
				c23.8,0,47.601,0,71.401,0c56.138,0,112.277,0,168.415,0c65.583,0,131.165,0,196.747,0c52.132,0,104.265,0,156.396,0
				c16.653,0,33.307,0,49.961,0c4.914,0,8.347-5.677,7.788-10.071C660.103,436.536,655.61,434.07,650.708,434.07z"/>
		</g>
	</g>
	<g>
		<line fill="#00E91F" x1="46.93" y1="158" x2="646.93" y2="158"/>
		<g>
			<path d="M48.071,166.93c25.24,0,50.48,0,75.72,0c58.162,0,116.324,0,174.485,0c64.746,0,129.493,0,194.239,0
				c44.993,0,89.986,0,134.979,0c6.858,0,13.717,0,20.576,0c4.914,0,8.347-5.677,7.788-10.071
				c-0.677-5.323-5.169-7.789-10.071-7.789c-25.239,0-50.479,0-75.72,0c-58.162,0-116.324,0-174.485,0
				c-64.746,0-129.493,0-194.239,0c-44.993,0-89.986,0-134.979,0c-6.859,0-13.717,0-20.576,0c-4.915,0-8.348,5.677-7.789,10.071
				C38.677,164.464,43.169,166.93,48.071,166.93L48.071,166.93z"/>
		</g>
	</g>
	<g>
		<line fill="#00E91F" x1="14.93" y1="296" x2="615.93" y2="296"/>
		<g>
			<path d="M16.071,304.93c25.18,0,50.36,0,75.54,0c58.069,0,116.137,0,174.206,0c64.751,0,129.503,0,194.254,0
				c45.228,0,90.455,0,135.683,0c7.106,0,14.212,0,21.318,0c4.914,0,8.347-5.677,7.788-10.071
				c-0.677-5.322-5.169-7.788-10.071-7.788c-25.18,0-50.359,0-75.539,0c-58.068,0-116.138,0-174.206,0
				c-64.751,0-129.502,0-194.254,0c-45.228,0-90.455,0-135.683,0c-7.106,0-14.212,0-21.318,0c-4.915,0-8.348,5.677-7.789,10.071
				C6.677,302.464,11.169,304.93,16.071,304.93L16.071,304.93z"/>
		</g>
	</g>
	<g>
		<path fill="#FFFFFF" d="M306.417,176.646c0.511-1.473,1.589-1.586,2.395-0.251l4.53,7.498c0.806,1.334,2.74,2.486,4.297,2.559
			l8.193,0.385c1.557,0.073,2.041,1.134,1.075,2.357l-5.29,6.7c-0.966,1.224-1.421,3.455-1.011,4.959l2.337,8.566
			c0.41,1.504-0.429,2.238-1.864,1.63l-7.684-3.251c-1.436-0.607-3.656-0.374-4.934,0.519l-6.84,4.778
			c-1.278,0.893-2.251,0.35-2.162-1.207l0.505-8.865c0.089-1.557-0.82-3.645-2.019-4.641l-6.568-5.454
			c-1.199-0.996-0.947-2.134,0.561-2.529l7.935-2.08c1.508-0.396,3.16-1.924,3.671-3.396L306.417,176.646z"/>
		<path fill="none" stroke="#000000" stroke-width="3" stroke-miterlimit="10" d="M306.417,176.646
			c0.511-1.473,1.589-1.586,2.395-0.251l4.53,7.498c0.806,1.334,2.74,2.486,4.297,2.559l8.193,0.385
			c1.557,0.073,2.041,1.134,1.075,2.357l-5.29,6.7c-0.966,1.224-1.421,3.455-1.011,4.959l2.337,8.566
			c0.41,1.504-0.429,2.238-1.864,1.63l-7.684-3.251c-1.436-0.607-3.656-0.374-4.934,0.519l-6.84,4.778
			c-1.278,0.893-2.251,0.35-2.162-1.207l0.505-8.865c0.089-1.557-0.82-3.645-2.019-4.641l-6.568-5.454
			c-1.199-0.996-0.947-2.134,0.561-2.529l7.935-2.08c1.508-0.396,3.16-1.924,3.671-3.396L306.417,176.646z"/>
	</g>
	<g>
		<path fill="#FFFFFF" d="M270.259,226.499c-0.897,1.275-1.965,1.087-2.373-0.418l-2.289-8.457
			c-0.408-1.505-1.949-3.145-3.426-3.645l-7.768-2.628c-1.477-0.5-1.649-1.652-0.383-2.563l6.933-4.982
			c1.266-0.91,2.318-2.93,2.338-4.489l0.114-8.878c0.02-1.559,1.029-2.033,2.242-1.053l6.489,5.243
			c1.213,0.979,3.412,1.367,4.886,0.861l7.891-2.707c1.475-0.506,2.26,0.284,1.746,1.756l-2.93,8.382
			c-0.514,1.472-0.216,3.729,0.662,5.018l4.812,7.053c0.878,1.288,0.322,2.313-1.237,2.277l-8.199-0.188
			c-1.559-0.036-3.568,0.978-4.466,2.253L270.259,226.499z"/>
		<path fill="none" stroke="#000000" stroke-width="3" stroke-miterlimit="10" d="M270.259,226.499
			c-0.897,1.275-1.965,1.087-2.373-0.418l-2.289-8.457c-0.408-1.505-1.949-3.145-3.426-3.645l-7.768-2.628
			c-1.477-0.5-1.649-1.652-0.383-2.563l6.933-4.982c1.266-0.91,2.318-2.93,2.338-4.489l0.114-8.878
			c0.02-1.559,1.029-2.033,2.242-1.053l6.489,5.243c1.213,0.979,3.412,1.367,4.886,0.861l7.891-2.707
			c1.475-0.506,2.26,0.284,1.746,1.756l-2.93,8.382c-0.514,1.472-0.216,3.729,0.662,5.018l4.812,7.053
			c0.878,1.288,0.322,2.313-1.237,2.277l-8.199-0.188c-1.559-0.036-3.568,0.978-4.466,2.253L270.259,226.499z"/>
	</g>
	<g>
		<path fill="#FFFFFF" d="M222.418,237.523c-1.556-0.107-1.984-1.151-0.953-2.32l5.611-6.36c1.031-1.169,1.583-3.368,1.226-4.885
			l-1.928-8.191c-0.357-1.518,0.519-2.246,1.946-1.619l7.554,3.319c1.427,0.627,3.674,0.46,4.993-0.372l7.127-4.494
			c1.318-0.832,2.264-0.244,2.1,1.307l-0.89,8.436c-0.164,1.55,0.672,3.648,1.856,4.662l6.289,5.38
			c1.185,1.014,0.91,2.125-0.611,2.47l-8.133,1.844c-1.521,0.345-3.248,1.808-3.839,3.25l-3.224,7.872
			c-0.591,1.442-1.708,1.516-2.482,0.163l-4.145-7.241c-0.774-1.353-2.681-2.547-4.236-2.654L222.418,237.523z"/>
		<path fill="none" stroke="#000000" stroke-width="3" stroke-miterlimit="10" d="M222.418,237.523
			c-1.556-0.107-1.984-1.151-0.953-2.32l5.611-6.36c1.031-1.169,1.583-3.368,1.226-4.885l-1.928-8.191
			c-0.357-1.518,0.519-2.246,1.946-1.619l7.554,3.319c1.427,0.627,3.674,0.46,4.993-0.372l7.127-4.494
			c1.318-0.832,2.264-0.244,2.1,1.307l-0.89,8.436c-0.164,1.55,0.672,3.648,1.856,4.662l6.289,5.38
			c1.185,1.014,0.91,2.125-0.611,2.47l-8.133,1.844c-1.521,0.345-3.248,1.808-3.839,3.25l-3.224,7.872
			c-0.591,1.442-1.708,1.516-2.482,0.163l-4.145-7.241c-0.774-1.353-2.681-2.547-4.236-2.654L222.418,237.523z"/>
	</g>
	<g>
		<path fill="#FFFFFF" d="M217.231,241.438c0.662-1.412,1.746-1.412,2.408,0l3.722,7.931c0.662,1.412,2.465,2.759,4.006,2.995
			l8.107,1.238c1.542,0.236,1.912,1.342,0.823,2.458l-5.962,6.109c-1.089,1.116-1.774,3.288-1.523,4.827l1.43,8.763
			c0.251,1.539-0.66,2.181-2.024,1.427l-7.302-4.037c-1.364-0.754-3.597-0.754-4.961,0l-7.302,4.037
			c-1.365,0.754-2.276,0.112-2.025-1.427l1.43-8.763c0.251-1.539-0.435-3.711-1.523-4.826l-5.963-6.111
			c-1.089-1.115-0.719-2.221,0.823-2.456l8.108-1.24c1.542-0.235,3.344-1.582,4.006-2.994L217.231,241.438z"/>
		<path fill="none" stroke="#000000" stroke-width="3" stroke-miterlimit="10" d="M217.231,241.438c0.662-1.412,1.746-1.412,2.408,0
			l3.722,7.931c0.662,1.412,2.465,2.759,4.006,2.995l8.107,1.238c1.542,0.236,1.912,1.342,0.823,2.458l-5.962,6.109
			c-1.089,1.116-1.774,3.288-1.523,4.827l1.43,8.763c0.251,1.539-0.66,2.181-2.024,1.427l-7.302-4.037
			c-1.364-0.754-3.597-0.754-4.961,0l-7.302,4.037c-1.365,0.754-2.276,0.112-2.025-1.427l1.43-8.763
			c0.251-1.539-0.435-3.711-1.523-4.826l-5.963-6.111c-1.089-1.115-0.719-2.221,0.823-2.456l8.108-1.24
			c1.542-0.235,3.344-1.582,4.006-2.994L217.231,241.438z"/>
	</g>
	<g>
		<path fill="#FFFFFF" d="M353.517,176.445c-0.632-1.425-1.813-1.502-2.624-0.17l-4.434,7.275c-0.811,1.331-2.748,2.49-4.305,2.575
			l-8.254,0.449c-1.557,0.085-2.017,1.137-1.021,2.337l5.33,6.434c0.995,1.2,1.476,3.414,1.067,4.919l-2.234,8.256
			c-0.408,1.504,0.435,2.24,1.871,1.635l7.687-3.241c1.437-0.605,3.674-0.395,4.973,0.469l6.894,4.587
			c1.298,0.863,2.273,0.297,2.167-1.258l-0.58-8.507c-0.105-1.556,0.793-3.638,1.998-4.627l6.515-5.354
			c1.205-0.99,0.957-2.125-0.55-2.525l-7.026-1.859c-1.507-0.399-3.258-1.892-3.89-3.317L353.517,176.445z"/>
		<path fill="none" stroke="#000000" stroke-width="3" stroke-miterlimit="10" d="M353.517,176.445
			c-0.632-1.425-1.813-1.502-2.624-0.17l-4.434,7.275c-0.811,1.331-2.748,2.49-4.305,2.575l-8.254,0.449
			c-1.557,0.085-2.017,1.137-1.021,2.337l5.33,6.434c0.995,1.2,1.476,3.414,1.067,4.919l-2.234,8.256
			c-0.408,1.504,0.435,2.24,1.871,1.635l7.687-3.241c1.437-0.605,3.674-0.395,4.973,0.469l6.894,4.587
			c1.298,0.863,2.273,0.297,2.167-1.258l-0.58-8.507c-0.105-1.556,0.793-3.638,1.998-4.627l6.515-5.354
			c1.205-0.99,0.957-2.125-0.55-2.525l-7.026-1.859c-1.507-0.399-3.258-1.892-3.89-3.317L353.517,176.445z"/>
	</g>
	<g>
		<path fill="#FFFFFF" d="M389.926,225.548c0.908,1.267,1.975,1.069,2.368-0.439l2.213-8.478c0.394-1.508,1.92-3.163,3.393-3.676
			l7.743-2.698c1.473-0.513,1.634-1.668,0.359-2.566l-6.978-4.919c-1.274-0.898-2.346-2.908-2.38-4.467l-0.195-8.877
			c-0.034-1.559-1.047-2.023-2.251-1.032l-6.44,5.302c-1.204,0.991-3.398,1.399-4.878,0.907l-7.916-2.635
			c-1.479-0.492-2.258,0.305-1.729,1.772l3.005,8.354c0.528,1.467,0.251,3.728-0.616,5.023l-4.746,7.097
			c-0.867,1.296-0.301,2.315,1.257,2.265l8.198-0.263c1.559-0.05,3.576,0.945,4.485,2.212L389.926,225.548z"/>
		<path fill="none" stroke="#000000" stroke-width="3" stroke-miterlimit="10" d="M389.926,225.548
			c0.908,1.267,1.975,1.069,2.368-0.439l2.213-8.478c0.394-1.508,1.92-3.163,3.393-3.676l7.743-2.698
			c1.473-0.513,1.634-1.668,0.359-2.566l-6.978-4.919c-1.274-0.898-2.346-2.908-2.38-4.467l-0.195-8.877
			c-0.034-1.559-1.047-2.023-2.251-1.032l-6.44,5.302c-1.204,0.991-3.398,1.399-4.878,0.907l-7.916-2.635
			c-1.479-0.492-2.258,0.305-1.729,1.772l3.005,8.354c0.528,1.467,0.251,3.728-0.616,5.023l-4.746,7.097
			c-0.867,1.296-0.301,2.315,1.257,2.265l8.198-0.263c1.559-0.05,3.576,0.945,4.485,2.212L389.926,225.548z"/>
	</g>
	<g>
		<path fill="#FFFFFF" d="M437.865,236.135c1.555-0.121,1.974-1.169,0.932-2.328l-5.669-6.31c-1.042-1.159-1.613-3.353-1.271-4.874
			l1.853-8.209c0.343-1.521-0.539-2.241-1.961-1.601l-7.521,3.388c-1.422,0.64-3.67,0.494-4.996-0.326l-7.168-4.429
			c-1.326-0.819-2.266-0.223-2.088,1.326l0.966,8.428c0.178,1.549-0.639,3.654-1.813,4.678l-6.239,5.438
			c-1.175,1.024-0.891,2.133,0.633,2.464l8.15,1.77c1.523,0.331,3.264,1.777,3.868,3.215l3.295,7.842
			c0.604,1.438,1.723,1.501,2.484,0.141l4.08-7.28c0.762-1.36,2.657-2.571,4.212-2.692L437.865,236.135z"/>
		<path fill="none" stroke="#000000" stroke-width="3" stroke-miterlimit="10" d="M437.865,236.135
			c1.555-0.121,1.974-1.169,0.932-2.328l-5.669-6.31c-1.042-1.159-1.613-3.353-1.271-4.874l1.853-8.209
			c0.343-1.521-0.539-2.241-1.961-1.601l-7.521,3.388c-1.422,0.64-3.67,0.494-4.996-0.326l-7.168-4.429
			c-1.326-0.819-2.266-0.223-2.088,1.326l0.966,8.428c0.178,1.549-0.639,3.654-1.813,4.678l-6.239,5.438
			c-1.175,1.024-0.891,2.133,0.633,2.464l8.15,1.77c1.523,0.331,3.264,1.777,3.868,3.215l3.295,7.842
			c0.604,1.438,1.723,1.501,2.484,0.141l4.08-7.28c0.762-1.36,2.657-2.571,4.212-2.692L437.865,236.135z"/>
	</g>
	<g>
		<path fill="#FFFFFF" d="M439.231,241.438c0.662-1.412,1.746-1.412,2.408,0l3.722,7.931c0.662,1.412,2.465,2.759,4.006,2.995
			l8.108,1.238c1.541,0.236,1.911,1.342,0.822,2.458l-5.962,6.109c-1.089,1.116-1.774,3.288-1.523,4.827l1.43,8.763
			c0.251,1.539-0.66,2.181-2.024,1.427l-7.302-4.037c-1.364-0.754-3.597-0.754-4.961,0l-7.303,4.037
			c-1.364,0.754-2.275,0.112-2.024-1.427l1.43-8.763c0.251-1.539-0.435-3.711-1.523-4.826l-5.963-6.111
			c-1.089-1.115-0.719-2.221,0.822-2.456l8.109-1.24c1.541-0.235,3.344-1.582,4.006-2.994L439.231,241.438z"/>
		<path fill="none" stroke="#000000" stroke-width="3" stroke-miterlimit="10" d="M439.231,241.438c0.662-1.412,1.746-1.412,2.408,0
			l3.722,7.931c0.662,1.412,2.465,2.759,4.006,2.995l8.108,1.238c1.541,0.236,1.911,1.342,0.822,2.458l-5.962,6.109
			c-1.089,1.116-1.774,3.288-1.523,4.827l1.43,8.763c0.251,1.539-0.66,2.181-2.024,1.427l-7.302-4.037
			c-1.364-0.754-3.597-0.754-4.961,0l-7.303,4.037c-1.364,0.754-2.275,0.112-2.024-1.427l1.43-8.763
			c0.251-1.539-0.435-3.711-1.523-4.826l-5.963-6.111c-1.089-1.115-0.719-2.221,0.822-2.456l8.109-1.24
			c1.541-0.235,3.344-1.582,4.006-2.994L439.231,241.438z"/>
	</g>
</g>
</svg>
